<?xml version="1.0" standalone="no"?>
<!DOCTYPE svg PUBLIC "-//W3C//DTD SVG 20010904//EN"
 "http://www.w3.org/TR/2001/REC-SVG-20010904/DTD/svg10.dtd">
<svg version="1.0" xmlns="http://www.w3.org/2000/svg"
 width="592.000000pt" height="592.000000pt" viewBox="0 0 592.000000 592.000000"
 preserveAspectRatio="xMidYMid meet">
<metadata>
Created by potrace 1.14, written by Peter Selinger 2001-2017
</metadata>
<g transform="translate(0.000000,592.000000) scale(0.100000,-0.100000)"
fill="#000000" stroke="none">
<path d="M468 5915 c-3 -3 -18 -8 -34 -11 -50 -9 -152 -61 -195 -101 -71 -65
-92 -92 -125 -163 -46 -98 -44 16 -44 -2676 0 -2476 0 -2542 19 -2613 11 -41
23 -77 28 -80 4 -3 16 -22 27 -43 45 -90 178 -186 295 -214 46 -11 491 -13
2531 -13 2577 -1 2504 -2 2590 36 8 3 18 7 22 7 4 1 13 7 20 13 6 7 17 13 23
13 7 0 23 9 36 20 92 78 146 151 176 241 17 52 18 164 18 2634 0 2532 0 2581
-19 2630 -63 160 -180 266 -341 309 -54 14 -320 16 -2541 16 -1364 0 -2483 -3
-2486 -5z"/>
</g>
</svg>
